<mxfile host="app.diagrams.net" agent="Mozilla/5.0 (Macintosh; Intel Mac OS X 10_15_7) AppleWebKit/537.36 (KHTML, like Gecko) Chrome/134.0.0.0 Safari/537.36 Edg/134.0.0.0" version="26.2.2">
  <diagram name="第 1 页" id="gzhv_t4R0epDjTg4EIp7">
    <mxGraphModel dx="1420" dy="769" grid="1" gridSize="10" guides="1" tooltips="1" connect="1" arrows="1" fold="1" page="1" pageScale="1" pageWidth="827" pageHeight="1169" math="0" shadow="0">
      <root>
        <mxCell id="0" />
        <mxCell id="1" parent="0" />
        <mxCell id="YjX4FutzEUDwgeiD3PkE-7" style="edgeStyle=orthogonalEdgeStyle;rounded=0;orthogonalLoop=1;jettySize=auto;html=1;" parent="1" target="YjX4FutzEUDwgeiD3PkE-3" edge="1">
          <mxGeometry relative="1" as="geometry">
            <mxPoint x="190" y="210" as="sourcePoint" />
          </mxGeometry>
        </mxCell>
        <mxCell id="YjX4FutzEUDwgeiD3PkE-8" style="edgeStyle=orthogonalEdgeStyle;rounded=0;orthogonalLoop=1;jettySize=auto;html=1;entryX=0;entryY=0.5;entryDx=0;entryDy=0;" parent="1" source="YjX4FutzEUDwgeiD3PkE-3" target="YjX4FutzEUDwgeiD3PkE-4" edge="1">
          <mxGeometry relative="1" as="geometry" />
        </mxCell>
        <mxCell id="YjX4FutzEUDwgeiD3PkE-3" value="读取本地缓存" style="rounded=1;whiteSpace=wrap;html=1;fillColor=#dae8fc;strokeColor=#6c8ebf;" parent="1" vertex="1">
          <mxGeometry x="130" y="280" width="120" height="60" as="geometry" />
        </mxCell>
        <mxCell id="YjX4FutzEUDwgeiD3PkE-9" style="edgeStyle=orthogonalEdgeStyle;rounded=0;orthogonalLoop=1;jettySize=auto;html=1;entryX=0;entryY=0.5;entryDx=0;entryDy=0;" parent="1" source="YjX4FutzEUDwgeiD3PkE-4" target="9_kM1ZQvzcmMT4uhvBhN-1" edge="1">
          <mxGeometry relative="1" as="geometry">
            <mxPoint x="500" y="310" as="targetPoint" />
          </mxGeometry>
        </mxCell>
        <mxCell id="YjX4FutzEUDwgeiD3PkE-28" value="不存在" style="edgeLabel;html=1;align=center;verticalAlign=middle;resizable=0;points=[];" parent="YjX4FutzEUDwgeiD3PkE-9" vertex="1" connectable="0">
          <mxGeometry x="-0.4571" y="2" relative="1" as="geometry">
            <mxPoint as="offset" />
          </mxGeometry>
        </mxCell>
        <mxCell id="YjX4FutzEUDwgeiD3PkE-14" style="edgeStyle=orthogonalEdgeStyle;rounded=0;orthogonalLoop=1;jettySize=auto;html=1;entryX=0.5;entryY=0;entryDx=0;entryDy=0;" parent="1" source="YjX4FutzEUDwgeiD3PkE-4" target="YjX4FutzEUDwgeiD3PkE-15" edge="1">
          <mxGeometry relative="1" as="geometry">
            <mxPoint x="370" y="400" as="targetPoint" />
          </mxGeometry>
        </mxCell>
        <mxCell id="YjX4FutzEUDwgeiD3PkE-27" value="存在" style="edgeLabel;html=1;align=center;verticalAlign=middle;resizable=0;points=[];" parent="YjX4FutzEUDwgeiD3PkE-14" vertex="1" connectable="0">
          <mxGeometry x="0.2" relative="1" as="geometry">
            <mxPoint as="offset" />
          </mxGeometry>
        </mxCell>
        <mxCell id="YjX4FutzEUDwgeiD3PkE-4" value="本地缓存&lt;div&gt;存在?&lt;/div&gt;" style="rhombus;whiteSpace=wrap;html=1;fillColor=#fff2cc;strokeColor=#d6b656;" parent="1" vertex="1">
          <mxGeometry x="320" y="280" width="110" height="60" as="geometry" />
        </mxCell>
        <mxCell id="YjX4FutzEUDwgeiD3PkE-15" value="&amp;nbsp;返回结果" style="ellipse;whiteSpace=wrap;html=1;fillColor=#d5e8d4;strokeColor=#82b366;" parent="1" vertex="1">
          <mxGeometry x="325" y="370" width="100" height="50" as="geometry" />
        </mxCell>
        <mxCell id="YjX4FutzEUDwgeiD3PkE-22" value="" style="shape=actor;whiteSpace=wrap;html=1;fillColor=#dae8fc;strokeColor=#6c8ebf;" parent="1" vertex="1">
          <mxGeometry x="190" y="110" width="40" height="60" as="geometry" />
        </mxCell>
        <mxCell id="YjX4FutzEUDwgeiD3PkE-23" value="" style="shape=actor;whiteSpace=wrap;html=1;fillColor=#dae8fc;strokeColor=#6c8ebf;" parent="1" vertex="1">
          <mxGeometry x="150" y="120" width="40" height="60" as="geometry" />
        </mxCell>
        <mxCell id="YjX4FutzEUDwgeiD3PkE-21" value="" style="shape=actor;whiteSpace=wrap;html=1;fillColor=#dae8fc;strokeColor=#6c8ebf;" parent="1" vertex="1">
          <mxGeometry x="170" y="130" width="40" height="60" as="geometry" />
        </mxCell>
        <mxCell id="YjX4FutzEUDwgeiD3PkE-26" value="请求" style="text;html=1;align=center;verticalAlign=middle;whiteSpace=wrap;rounded=0;" parent="1" vertex="1">
          <mxGeometry x="160" y="80" width="60" height="30" as="geometry" />
        </mxCell>
        <mxCell id="9_kM1ZQvzcmMT4uhvBhN-1" value="&amp;nbsp;返回结果" style="ellipse;whiteSpace=wrap;html=1;fillColor=#d5e8d4;strokeColor=#82b366;" vertex="1" parent="1">
          <mxGeometry x="500" y="285" width="100" height="50" as="geometry" />
        </mxCell>
      </root>
    </mxGraphModel>
  </diagram>
</mxfile>
